<?xml version="1.0" encoding="UTF-8" standalone="no"?>
<svg
   xmlns:dc="http://purl.org/dc/elements/1.1/"
   xmlns:cc="http://creativecommons.org/ns#"
   xmlns:rdf="http://www.w3.org/1999/02/22-rdf-syntax-ns#"
   xmlns:svg="http://www.w3.org/2000/svg"
   xmlns="http://www.w3.org/2000/svg"
   xmlns:sodipodi="http://sodipodi.sourceforge.net/DTD/sodipodi-0.dtd"
   xmlns:inkscape="http://www.inkscape.org/namespaces/inkscape"
   width="1000"
   height="1000"
   viewBox="0 0 264.58333 264.58334"
   version="1.1"
   id="svg8"
   inkscape:version="1.0.1 (0767f8302a, 2020-10-17)"
   sodipodi:docname="banner.svg"
   inkscape:export-filename="/home/francisco/Imagens/pti_unopar.png"
   inkscape:export-xdpi="95.661049"
   inkscape:export-ydpi="95.661049">
  <defs
     id="defs2">
    <rect
       x="102.52724"
       y="155.65398"
       width="52.403915"
       height="127.93465"
       id="rect220" />
  </defs>
  <sodipodi:namedview
     id="base"
     pagecolor="#ffffff"
     bordercolor="#666666"
     borderopacity="1.0"
     inkscape:pageopacity="0.0"
     inkscape:pageshadow="2"
     inkscape:zoom="0.35"
     inkscape:cx="836.3413"
     inkscape:cy="581.48087"
     inkscape:document-units="mm"
     inkscape:current-layer="g1247"
     inkscape:document-rotation="0"
     showgrid="false"
     inkscape:window-width="1920"
     inkscape:window-height="995"
     inkscape:window-x="0"
     inkscape:window-y="0"
     inkscape:window-maximized="1"
     units="px" />
  <metadata
     id="metadata5">
    <rdf:RDF>
      <cc:Work
         rdf:about="">
        <dc:format>image/svg+xml</dc:format>
        <dc:type
           rdf:resource="http://purl.org/dc/dcmitype/StillImage" />
        <dc:title></dc:title>
      </cc:Work>
    </rdf:RDF>
  </metadata>
  <g
     inkscape:label="Layer 1"
     inkscape:groupmode="layer"
     id="layer1">
    <text
       xml:space="preserve"
       id="text218"
       style="font-style:normal;font-weight:normal;font-size:10.5833px;line-height:1.25;font-family:sans-serif;white-space:pre;shape-inside:url(#rect220);fill:#000000;fill-opacity:1;stroke:none;" />
    <g
       id="g313"
       transform="matrix(2.2345269,0,0,2.2345269,-0.05976346,22.89957)">
      <g
         id="g1247">
        <rect
           style="opacity:0.4;fill:#008080;fill-opacity:1;stroke:none;stroke-width:0.117147"
           id="rect368"
           width="118.40687"
           height="118.40687"
           x="0.026745841"
           y="-10.248061" />
        <rect
           style="opacity:1;fill:#008080;fill-opacity:1;stroke:none;stroke-width:0.243507"
           id="rect370"
           width="118.44128"
           height="98.02639"
           x="0.0095415572"
           y="0.42216158"
           ry="10.098465" />
        <g
           id="g1230"
           transform="translate(-128.09901,14.622489)"
           style="opacity:0.25">
          <path
             id="path391"
             style="opacity:1;fill:#00ad9f;fill-opacity:1;stroke:none;stroke-width:2.05653"
             d="m 1994.8789,374.92188 c 0.4101,-0.17206 0.8389,-0.3167 1.2481,-0.49024 5.4685,-2.31918 10.8534,-4.76977 16.1699,-7.35352 5.3165,-2.58373 10.5647,-5.30024 15.7636,-8.14843 5.199,-2.8482 10.3491,-5.82884 15.4649,-8.94141 5.1157,-3.11257 10.1986,-6.35753 15.2656,-9.73437 5.067,-3.37685 10.1172,-6.88436 15.1699,-10.52539 2.6761,-1.92838 5.3597,-3.99364 8.0391,-5.9961 V 51.347656 c 0,-47.2485225 -38.0366,-85.287109 -85.2852,-85.287109 h -307.2936 z"
             transform="matrix(0.11840687,0,0,0.11840687,0.02674546,-10.248062)"
             sodipodi:nodetypes="csssssscsscc" />
          <path
             id="path399"
             style="opacity:1;fill:#00ffff;fill-opacity:1;stroke:none;stroke-width:2.05653"
             d="m 1489.0039,-33.939453 125.8379,414.818363 c 10.524,1.96953 21.0435,4.02813 31.5781,5.87695 10.6224,1.86421 21.2535,3.65143 31.8985,5.32617 10.6449,1.67474 21.3047,3.23782 31.9843,4.65625 10.6796,1.41843 21.3793,2.69183 32.1055,3.78711 10.7262,1.09528 21.4788,2.01151 32.2637,2.7168 10.7848,0.70529 21.6015,1.1988 32.457,1.44726 10.8555,0.24846 21.7493,0.25178 32.6875,-0.0234 7.9247,-0.1994 15.6278,-0.53141 23.125,-0.9961 7.4972,-0.46469 14.7885,-1.06112 21.8926,-1.79101 7.104,-0.7299 14.0202,-1.59289 20.7656,-2.58789 6.7454,-0.99501 13.3211,-2.12279 19.7422,-3.38282 6.4211,-1.26002 12.687,-2.65082 18.8184,-4.17578 6.1313,-1.52495 12.1279,-3.18287 18.0039,-4.97265 5.8759,-1.78979 11.632,-3.71305 17.2871,-5.76758 5.2318,-1.9008 10.3566,-3.94299 15.4277,-6.07031 L 1625.1393,-33.939453 Z"
             transform="matrix(0.11840687,0,0,0.11840687,0.02674546,-10.248062)"
             sodipodi:nodetypes="ccssssssssssssssccc" />
          <path
             id="path401"
             style="opacity:0.7;fill:#00beff;fill-opacity:1;stroke:none;stroke-width:2.05653"
             d="m 1489.0039,-33.939453 h -322.0078 c -47.2485,0 -85.2871,38.0385865 -85.2871,85.287109 V 434.48633 c 3.7624,-3.98833 7.5313,-7.94859 11.373,-11.64453 4.8781,-4.69293 9.8217,-9.15336 14.834,-13.38868 5.0124,-4.2353 10.0944,-8.244 15.2481,-12.0371 5.1537,-3.7931 10.3795,-7.37002 15.6816,-10.73633 5.3021,-3.36632 10.6811,-6.52357 16.1387,-9.47852 5.4576,-2.95494 10.9931,-5.70663 16.6133,-8.26562 5.6201,-2.559 11.3234,-4.92506 17.1132,-7.10352 5.7898,-2.17846 11.6663,-4.16908 17.6329,-5.98242 5.9664,-1.81334 12.0235,-3.44847 18.1738,-4.91211 6.1503,-1.46364 12.3952,-2.75737 18.7363,-3.88672 6.3411,-1.12935 12.7793,-2.09381 19.3184,-2.9043 6.539,-0.81048 13.1778,-1.46562 19.9218,-1.97265 6.7441,-0.50703 13.5927,-0.86694 20.5489,-1.08594 6.9561,-0.219 14.02,-0.29776 21.1953,-0.24414 11.0565,0.0826 22.0604,0.42085 33.0195,0.98242 10.9591,0.56157 21.8744,1.34664 32.7481,2.32031 10.8736,0.97367 21.7075,2.13615 32.5078,3.45508 10.8002,1.31893 21.5659,2.79328 32.3047,4.39063 10.7388,1.59735 21.4493,3.31802 32.1386,5.12695 10.6894,1.80893 21.3578,3.70649 32.0098,5.66016 21.3039,3.90734 42.5452,8.0378 63.7715,12.12304 10.7007,2.05949 21.4043,3.97424 32.1035,5.97657 z"
             transform="matrix(0.11840687,0,0,0.11840687,0.02674546,-10.248062)" />
        </g>
        <text
           xml:space="preserve"
           style="font-style:normal;font-variant:normal;font-weight:normal;font-stretch:normal;font-size:6.35px;line-height:1.25;font-family:Roboto;-inkscape-font-specification:'Roboto, Normal';font-variant-ligatures:normal;font-variant-caps:normal;font-variant-numeric:normal;font-variant-east-asian:normal;fill:#ffffff;fill-opacity:1;stroke:none;stroke-width:0.154489"
           x="59.261185"
           y="63.48344"
           id="text270"><tspan
             sodipodi:role="line"
             id="tspan268"
             x="59.261185"
             y="63.48344"
             style="font-style:normal;font-variant:normal;font-weight:normal;font-stretch:normal;font-size:6.35px;font-family:Roboto;-inkscape-font-specification:'Roboto, Normal';font-variant-ligatures:normal;font-variant-caps:normal;font-variant-numeric:normal;font-variant-east-asian:normal;text-align:center;text-anchor:middle;fill:#ffffff;stroke:none;stroke-width:0.154489">TECNOLOGIA EM ANÁLISE E</tspan><tspan
             sodipodi:role="line"
             x="59.261185"
             y="71.420937"
             style="font-style:normal;font-variant:normal;font-weight:normal;font-stretch:normal;font-size:6.35px;font-family:Roboto;-inkscape-font-specification:'Roboto, Normal';font-variant-ligatures:normal;font-variant-caps:normal;font-variant-numeric:normal;font-variant-east-asian:normal;text-align:center;text-anchor:middle;fill:#ffffff;stroke:none;stroke-width:0.154489"
             id="tspan272">DESENVOLVIMENTO</tspan><tspan
             sodipodi:role="line"
             x="59.261185"
             y="79.358437"
             style="font-style:normal;font-variant:normal;font-weight:normal;font-stretch:normal;font-size:6.35px;font-family:Roboto;-inkscape-font-specification:'Roboto, Normal';font-variant-ligatures:normal;font-variant-caps:normal;font-variant-numeric:normal;font-variant-east-asian:normal;text-align:center;text-anchor:middle;fill:#ffffff;stroke:none;stroke-width:0.154489"
             id="tspan295">DE SISTEMAS</tspan></text>
        <text
           xml:space="preserve"
           style="font-style:normal;font-variant:normal;font-weight:bold;font-stretch:normal;font-size:7.05556px;line-height:1.25;font-family:Roboto;-inkscape-font-specification:'Roboto, Bold';font-variant-ligatures:normal;font-variant-caps:normal;font-variant-numeric:normal;font-variant-east-asian:normal;fill:#ffffff;fill-opacity:1;stroke:none;stroke-width:0.205727"
           x="59.076874"
           y="25.925634"
           id="text287"><tspan
             sodipodi:role="line"
             x="59.076874"
             y="25.925634"
             style="font-style:normal;font-variant:normal;font-weight:bold;font-stretch:normal;font-size:7.05556px;font-family:Roboto;-inkscape-font-specification:'Roboto, Bold';font-variant-ligatures:normal;font-variant-caps:normal;font-variant-numeric:normal;font-variant-east-asian:normal;text-align:center;text-anchor:middle;fill:#ffffff;stroke:none;stroke-width:0.205727"
             id="tspan285">PRODUÇÃO TEXTUAL</tspan><tspan
             sodipodi:role="line"
             x="59.076874"
             y="34.745083"
             style="font-style:normal;font-variant:normal;font-weight:bold;font-stretch:normal;font-size:7.05556px;font-family:Roboto;-inkscape-font-specification:'Roboto, Bold';font-variant-ligatures:normal;font-variant-caps:normal;font-variant-numeric:normal;font-variant-east-asian:normal;text-align:center;text-anchor:middle;fill:#ffffff;stroke:none;stroke-width:0.205727"
             id="tspan291">INTERDISCIPLINAR </tspan><tspan
             sodipodi:role="line"
             x="59.076874"
             y="43.564533"
             style="font-style:normal;font-variant:normal;font-weight:bold;font-stretch:normal;font-size:7.05556px;font-family:Roboto;-inkscape-font-specification:'Roboto, Bold';font-variant-ligatures:normal;font-variant-caps:normal;font-variant-numeric:normal;font-variant-east-asian:normal;text-align:center;text-anchor:middle;fill:#ffffff;stroke:none;stroke-width:0.205727"
             id="tspan293">INDIVIDUAL - PTI</tspan></text>
        <path
           style="fill:#ffffff;fill-opacity:1;stroke:none;stroke-width:0.232605"
           d="m -4.8488582,58.537107 c 0,-1.01169 0.049069,-1.092528 1.4239661,-2.345822 8.5588684,-7.225362 18.7775061,-9.64894 32.3711281,-9.58603 20.946759,0.09694 40.325563,5.003037 61.048027,4.680134 15.013487,-0.233944 23.285817,-2.958458 33.168567,-8.159622 l 0.0698,1.150291 0.0766,1.033352 -1.58537,2.313518 c -5.33254,3.563396 -10.49058,5.099167 -19.78016,6.641387 C 89.565265,56.319335 74.637162,55.233938 62.736356,53.411221 43.790727,50.878959 23.667502,48.068682 9.5042586,53.129445 6.1587606,54.324847 3.2298699,55.323504 -1.2605877,57.692147 l -3.5882825,1.892759 z"
           id="path339"
           sodipodi:nodetypes="scssccccscsscs" />
      </g>
      <g
         id="g281"
         transform="translate(-45.733333)">
        <g
           id="g266"
           transform="matrix(0.98785164,0,0,0.93790742,-91.507447,70.770683)"
           style="opacity:0.8" />
      </g>
    </g>
  </g>
</svg>
